<svg width="7" height="7" xmlns="http://www.w3.org/2000/svg" xml:space="preserve" version="1.1">

 <g>
  <title>Layer 1</title>
  <path id="svg_39" fill="#080D14" d="m4.62501,3.525l2.2,-2.2c0.3,-0.3 0.3,-0.8 0,-1.1c-0.3,-0.3 -0.8,-0.3 -1.1,0l-2.2,2.2l-2.2,-2.2c-0.3,-0.3 -0.8,-0.3 -1.1,0s-0.3,0.8 0,1.1l2.2,2.2l-2.2,2.2c-0.3,0.3 -0.3,0.8 0,1.1c0.2,0.2 0.4,0.2 0.5,0.2s0.4,-0.1 0.5,-0.2l2.2,-2.2l2.2,2.2c0.2,0.2 0.4,0.2 0.5,0.2s0.4,-0.1 0.5,-0.2c0.3,-0.3 0.3,-0.8 0,-1.1l-2,-2.2z" class="st1"/>
 </g>
</svg>