<svg width="51" height="51" xmlns="http://www.w3.org/2000/svg" xml:space="preserve" version="1.1">

 <g>
  <title>Layer 1</title>
  <g id="svg_110">
   <g id="svg_111">
    <path id="svg_112" fill="#16FFBD" d="m25.3,50.6c-13.9,0 -25.3,-11.3 -25.3,-25.3s11.4,-25.3 25.3,-25.3c13.9,0 25.3,11.3 25.3,25.3s-11.4,25.3 -25.3,25.3zm0,-47.4c-12.2,0 -22.1,9.9 -22.1,22.1s9.9,22.1 22.1,22.1s22.1,-9.9 22.1,-22.1s-9.9,-22.1 -22.1,-22.1z" class="st0"/>
   </g>
   <g id="svg_113">
    <path id="svg_114" fill="#16FFBD" d="m25.3,14.1c3.6,0 4.1,0 5.5,0.1c1.3,0.1 2,0.3 2.5,0.5c0.6,0.2 1.1,0.5 1.6,1c0.5,0.5 0.8,0.9 1,1.6c0.2,0.5 0.4,1.2 0.5,2.5c0.1,1.4 0.1,1.9 0.1,5.5s0,4.1 -0.1,5.5c-0.1,1.3 -0.3,2 -0.5,2.5c-0.2,0.6 -0.5,1.1 -1,1.6c-0.5,0.5 -0.9,0.8 -1.6,1c-0.5,0.2 -1.2,0.4 -2.5,0.5c-1.4,0.1 -1.9,0.1 -5.5,0.1s-4.1,0 -5.5,-0.1c-1.3,-0.1 -2,-0.3 -2.5,-0.5c-0.6,-0.2 -1.1,-0.5 -1.6,-1c-0.5,-0.5 -0.8,-0.9 -1,-1.6c-0.2,-0.5 -0.4,-1.2 -0.5,-2.5c-0.1,-1.4 -0.1,-1.9 -0.1,-5.5s0,-4.1 0.1,-5.5c0.1,-1.3 0.3,-2 0.5,-2.5c0.2,-0.6 0.5,-1.1 1,-1.6c0.5,-0.5 0.9,-0.8 1.6,-1c0.5,-0.2 1.2,-0.4 2.5,-0.5c1.4,0 1.9,-0.1 5.5,-0.1m0,-2.4c-3.7,0 -4.2,0 -5.6,0.1c-1.4,0.1 -2.4,0.3 -3.3,0.6c-0.9,0.3 -1.7,0.8 -2.4,1.6c-0.8,0.8 -1.2,1.5 -1.6,2.4c-0.3,0.9 -0.6,1.9 -0.6,3.3c-0.1,1.5 -0.1,1.9 -0.1,5.6c0,3.7 0,4.2 0.1,5.6c0.1,1.4 0.3,2.4 0.6,3.3c0.3,0.9 0.8,1.7 1.6,2.4c0.8,0.8 1.5,1.2 2.4,1.6c0.9,0.3 1.9,0.6 3.3,0.6c1.5,0.1 1.9,0.1 5.6,0.1c3.7,0 4.2,0 5.6,-0.1c1.4,-0.1 2.4,-0.3 3.3,-0.6c0.9,-0.3 1.7,-0.8 2.4,-1.6c0.8,-0.8 1.2,-1.5 1.6,-2.4c0.3,-0.9 0.6,-1.9 0.6,-3.3c0.1,-1.5 0.1,-1.9 0.1,-5.6s0,-4.2 -0.1,-5.6c-0.1,-1.4 -0.3,-2.4 -0.6,-3.3c-0.3,-0.9 -0.8,-1.7 -1.6,-2.4c-0.8,-0.8 -1.5,-1.2 -2.4,-1.6c-0.9,-0.3 -1.9,-0.6 -3.3,-0.6c-1.4,-0.1 -1.9,-0.1 -5.6,-0.1l0,0z" class="st0"/>
    <path id="svg_115" fill="#16FFBD" d="m25.3,18.3c-3.9,0 -7,3.1 -7,7s3.1,7 7,7c3.9,0 7,-3.1 7,-7s-3.1,-7 -7,-7zm0,11.5c-2.5,0 -4.5,-2 -4.5,-4.5c0,-2.5 2,-4.5 4.5,-4.5c2.5,0 4.5,2 4.5,4.5c0,2.5 -2,4.5 -4.5,4.5z" class="st0"/>
    <circle id="svg_116" fill="#16FFBD" r="1.6" cy="18" cx="32.6" class="st0"/>
   </g>
  </g>
 </g>
</svg>