<svg width="51" height="51" xmlns="http://www.w3.org/2000/svg" xml:space="preserve" version="1.1">

 <g>
  <title>Layer 1</title>
  <g id="svg_7">
   <g id="svg_8">
    <path id="svg_9" fill="#16FFBD" d="m18.8,15.9c0,0 2.4,-1.4 3.2,0.1c0.7,0.4 2.3,9.7 2.7,11.5c0.3,1.8 1.2,2.5 1.7,1.7s2.3,-2.8 3.5,-5.6s-0.4,-3.2 -0.9,-3s-3,0.2 -2.1,-0.9s3.2,-3 3.8,-3.3c1.1,-0.8 2.6,-1.8 4,-0.1c0.9,0.7 2.9,3 0.9,6.6c-2,3.5 -9.4,11.7 -9.4,11.7s-2.8,1.9 -3.9,0c-1.1,-1.9 -4.8,-10.7 -5,-11.9c-0.1,-1.2 -0.4,-1.5 -1,-1.2s-1.8,2.1 -1.9,1.6s-1.2,-1.2 -0.5,-2.3c0.7,-1.1 4.4,-4.6 4.9,-4.9z" class="st0"/>
   </g>
   <g id="svg_10">
    <path id="svg_11" fill="#16FFBD" d="m25.3,50.6c-13.9,0 -25.3,-11.3 -25.3,-25.3s11.4,-25.3 25.3,-25.3s25.3,11.3 25.3,25.3s-11.4,25.3 -25.3,25.3zm0,-47.4c-12.2,0 -22.1,9.9 -22.1,22.1s9.9,22.1 22.1,22.1s22.1,-9.9 22.1,-22.1s-9.9,-22.1 -22.1,-22.1z" class="st0"/>
   </g>
  </g>
 </g>
</svg>