<svg width="51" height="51" xmlns="http://www.w3.org/2000/svg" xml:space="preserve" version="1.1">

 <g>
  <title>Layer 1</title>
  <g id="svg_1">
   <g id="svg_2">
    <g id="svg_3">
     <path id="svg_4" fill="#16FFBD" d="m30.2,19.4l0,-3.9c-1.4,0 -1,-0.1 -2.4,-0.1s-2.2,0.2 -3.2,0.7c-0.9,0.5 -1.3,1 -1.7,1.7c-0.3,0.7 -0.5,1.6 -0.5,3l0,0.5l-2,0l-0.1,3.9l2,0l0,9.9l4,0l0,-9.9l3.6,0l0.5,-3.9l-4,0c0,0 -0.3,-1.2 0.3,-1.8c0.3,-0.2 3.5,-0.1 3.5,-0.1z" class="st0"/>
    </g>
   </g>
   <g id="svg_5">
    <path id="svg_6" fill="#16FFBD" d="m25.3,50.6c-14,0 -25.3,-11.4 -25.3,-25.3s11.3,-25.3 25.3,-25.3c13.9,0 25.3,11.3 25.3,25.3s-11.4,25.3 -25.3,25.3zm0,-47.4c-12.2,0 -22.1,9.9 -22.1,22.1s9.9,22.1 22.1,22.1s22.1,-9.9 22.1,-22.1s-9.9,-22.1 -22.1,-22.1z" class="st0"/>
   </g>
  </g>
 </g>
</svg>