<svg width="45" height="10" xmlns="http://www.w3.org/2000/svg" xml:space="preserve" version="1.1">

 <g>
  <title>Layer 1</title>
  <g id="svg_40">
   <path id="svg_41" fill="#080D14" d="m39.9,10.2c-2.8,0 -5.1,-2.3 -5.1,-5.1c0,-2 -1.6,-3.6 -3.6,-3.6s-3.6,1.6 -3.6,3.6c0,2.8 -2.3,5.1 -5.1,5.1s-5.1,-2.3 -5.1,-5.1c0,-2 -1.6,-3.6 -3.6,-3.6s-3.6,1.6 -3.6,3.6c0,2.8 -2.3,5.1 -5.1,5.1s-5.1,-2.3 -5.1,-5.1c0,-0.4 0.3,-0.7 0.7,-0.7s0.7,0.3 0.7,0.7c0,2 1.6,3.6 3.6,3.6s3.6,-1.6 3.6,-3.6c0,-2.8 2.3,-5.1 5.1,-5.1s5.1,2.3 5.1,5.1c0,2 1.6,3.6 3.6,3.6s3.6,-1.6 3.6,-3.6c0,-2.8 2.3,-5.1 5.1,-5.1s5.1,2.3 5.1,5.1c0,2 1.6,3.6 3.6,3.6s3.6,-1.6 3.6,-3.6c0,-0.4 0.3,-0.7 0.7,-0.7s0.7,0.3 0.7,0.7c0.2,2.8 -2.1,5.1 -4.9,5.1z" class="st1"/>
  </g>
 </g>
</svg>